<?xml version="1.0" encoding="UTF-8" standalone="no"?>
<!-- Created with Inkscape (http://www.inkscape.org/) -->

<svg
   xml:space="preserve"
   id="svg5"
   version="1.1"
   viewBox="0 0 207.63653 99.861251"
   height="99.861252mm"
   width="207.63654mm"
   sodipodi:docname="lines.svg"
   inkscape:version="1.2.2 (b0a8486541, 2022-12-01)"
   xmlns:inkscape="http://www.inkscape.org/namespaces/inkscape"
   xmlns:sodipodi="http://sodipodi.sourceforge.net/DTD/sodipodi-0.dtd"
   xmlns="http://www.w3.org/2000/svg"
   xmlns:svg="http://www.w3.org/2000/svg"><sodipodi:namedview
     id="namedview7"
     pagecolor="#ffffff"
     bordercolor="#000000"
     borderopacity="0.25"
     inkscape:showpageshadow="2"
     inkscape:pageopacity="0.0"
     inkscape:pagecheckerboard="0"
     inkscape:deskcolor="#d1d1d1"
     inkscape:document-units="mm"
     showgrid="false"
     inkscape:zoom="1.4142136"
     inkscape:cx="416.83945"
     inkscape:cy="239.00209"
     inkscape:window-width="1920"
     inkscape:window-height="995"
     inkscape:window-x="0"
     inkscape:window-y="0"
     inkscape:window-maximized="1"
     inkscape:current-layer="g8381" /><defs
     id="defs2"><clipPath
       id="clipPath2726">
      <path
   clip-rule="nonzero"
   d="M 0,0 H 6 V 8.855469 H 0 Z m 0,0"
   id="path8519" />
    </clipPath><clipPath
       id="clipPath9208">
      <path
   clip-rule="nonzero"
   d="M 0,0 H 6 V 4.289062 H 0 Z m 0,0"
   id="path4497" />
    </clipPath><clipPath
       id="clipPath8910">
      <path
   clip-rule="nonzero"
   d="M 0,0 H 4 V 9.964844 H 0 Z m 0,0"
   id="path4806" />
    </clipPath><clipPath
       id="clipPath8952">
      <path
   clip-rule="nonzero"
   d="m 11,6 h 2 v 3.964844 h -2 z m 0,0"
   id="path9270" />
    </clipPath><clipPath
       id="clipPath7828">
      <path
   clip-rule="nonzero"
   d="m 14,0 h 7 v 9.964844 h -7 z m 0,0"
   id="path5961" />
    </clipPath><clipPath
       id="clipPath3214">
      <path
   clip-rule="nonzero"
   d="m 21,0 h 3 v 9.964844 h -3 z m 0,0"
   id="path6061" />
    </clipPath></defs><g
     inkscape:label="Layer 1"
     inkscape:groupmode="layer"
     id="layer1"
     transform="translate(-2.304767,-1.3031289)"><ellipse
       style="fill:#e6e6e6;stroke:#000000;stroke-width:0.184216"
       id="path300"
       cx="159.11797"
       cy="52.468693"
       rx="45.78867"
       ry="45.998043"
       inkscape:export-filename="lines.png"
       inkscape:export-xdpi="96"
       inkscape:export-ydpi="96" /><path
       style="fill:none;stroke:#0000ff;stroke-width:0.184216"
       id="path300-2-9"
       sodipodi:type="arc"
       sodipodi:cx="53.258598"
       sodipodi:cy="46.179638"
       sodipodi:rx="45.78867"
       sodipodi:ry="45.998043"
       sodipodi:start="6.2810024"
       sodipodi:end="3.1284058"
       sodipodi:arc-type="arc"
       d="M 99.047159,46.079229 A 45.78867,45.998043 0 0 1 53.610475,92.176323 45.78867,45.998043 0 0 1 7.4739099,46.78619"
       sodipodi:open="true" /><path
       style="fill:none;stroke:#0000ff;stroke-width:0.184216;stroke-dasharray:0.736866, 0.736866;stroke-dashoffset:0"
       id="path300-2-9-1"
       sodipodi:type="arc"
       sodipodi:cx="53.258598"
       sodipodi:cy="-47.392738"
       sodipodi:rx="45.78867"
       sodipodi:ry="45.998043"
       sodipodi:start="6.2810024"
       sodipodi:end="3.1284058"
       sodipodi:arc-type="arc"
       d="M 99.047159,-47.493148 A 45.78867,45.998043 0 0 1 53.610475,-1.3960535 45.78867,45.998043 0 0 1 7.4739099,-46.786186"
       sodipodi:open="true"
       transform="scale(1,-1)" /><path
       style="fill:none;stroke:#000000;stroke-width:0.174896"
       d="m 113.43524,52.498701 h 91.57734"
       id="path513"
       sodipodi:nodetypes="cc" /><path
       style="fill:none;stroke:#000000;stroke-width:0.174896"
       d="M 159.22391,98.496745 V 6.5006595"
       id="path564" /><path
       style="fill:none;stroke:#000000;stroke-width:0.174896"
       d="m 159.22391,98.496745 c 23.64169,-23.76888 21.70596,-71.670127 0,-91.9960881"
       id="path564-3"
       sodipodi:nodetypes="cc" /><path
       style="fill:none;stroke:#000000;stroke-width:0.174896"
       d="m 159.22391,98.443454 c 43.24573,-13.966886 44.05455,-75.786983 0,-91.996094"
       id="path564-3-6"
       sodipodi:nodetypes="cc" /><path
       style="fill:none;stroke:#000000;stroke-width:0.174896"
       d="m 159.15589,98.466756 c -23.6417,-23.768881 -21.70596,-71.670128 0,-91.9960929"
       id="path564-3-7"
       sodipodi:nodetypes="cc" /><path
       style="fill:none;stroke:#000000;stroke-width:0.174896"
       d="m 159.11796,98.466737 c -43.24573,-13.966885 -44.05455,-75.786982 0,-91.9960948"
       id="path564-3-6-5"
       sodipodi:nodetypes="cc" /><path
       style="fill:none;stroke:#000000;stroke-width:0.174896"
       d="m 136.07891,12.809677 c 7.97637,10.577651 40.58244,9.573983 46.11074,-0.104955"
       id="path669"
       sodipodi:nodetypes="cc" /><path
       style="fill:none;stroke:#000000;stroke-width:0.174896"
       d="m 119.44411,29.719706 c 17.54518,8.421208 62.10507,8.70649 79.39578,-0.286313"
       id="path669-3"
       sodipodi:nodetypes="cc" /><path
       style="fill:none;stroke:#000000;stroke-width:0.174896"
       d="m 136.07891,92.291659 c 7.97637,-10.577642 40.58244,-9.573975 46.11074,0.104955"
       id="path669-5"
       sodipodi:nodetypes="cc" /><path
       style="fill:none;stroke:#000000;stroke-width:0.174896"
       d="m 119.44411,75.615498 c 17.54518,-8.421207 62.10507,-8.706489 79.39578,0.286314"
       id="path669-3-6"
       sodipodi:nodetypes="cc" /><path
       style="fill:#2a7fff;stroke:#0000ff;stroke-width:0.0707107;stroke-dasharray:none;stroke-dashoffset:0"
       d="M 50.969368,91.986048 C 46.323033,91.667178 42.577023,90.944667 38.676017,89.614969 33.2749,87.773945 28.485061,85.086398 24.075373,81.422644 22.577544,80.178184 19.604886,77.216544 18.402613,75.770911 12.146016,68.247865 8.5276622,59.381868 7.7480653,49.664236 7.6086709,47.92669 7.6209695,47.866963 8.0124457,48.38034 c 1.6322302,2.140484 7.1155323,4.205618 14.9599713,5.634262 21.41892,3.90085 54.309792,2.883093 69.38714,-2.147075 2.955014,-0.985864 5.418343,-2.34564 6.217229,-3.431955 l 0.287282,-0.390642 -0.0011,0.275675 c -0.0016,0.466624 -0.183112,2.459249 -0.336073,3.690046 -1.084324,8.725029 -4.884666,17.293132 -10.683976,24.087663 -1.115491,1.306923 -3.97147,4.134834 -5.255699,5.204053 -7.672554,6.387975 -16.677986,9.991534 -26.613363,10.649447 -1.288282,0.08531 -3.99102,0.103796 -5.004623,0.03423 z"
       id="path3074" /><g
       id="g8381"
       transform="translate(-0.0470578,93.3947)"><ellipse
         style="fill:#80b3ff;stroke:#0000ff;stroke-width:0.0838896"
         id="path300-2-3"
         cx="53.359806"
         cy="-46.608479"
         rx="45.838837"
         ry="9.5284977" /><path
         style="fill:#ffffff;stroke:#0000ff;stroke-width:0.14;stroke-dasharray:none;stroke-dashoffset:0;stroke-opacity:1"
         d="M 99.097427,-46.608479 H 7.5280491"
         id="path3843-9"
         sodipodi:nodetypes="cc" /><path
         style="fill:none;stroke:#000000;stroke-width:0.312325;stroke-dasharray:none;stroke-opacity:1"
         id="path300-3"
         sodipodi:type="arc"
         sodipodi:cx="53.287701"
         sodipodi:cy="-46.082787"
         sodipodi:rx="11.930783"
         sodipodi:ry="3.6651816"
         sodipodi:start="4.712389"
         sodipodi:end="0.83095418"
         sodipodi:arc-type="arc"
         d="m 53.287701,-49.747968 a 11.930783,3.6651816 0 0 1 11.123736,2.340065 11.930783,3.6651816 0 0 1 -3.080344,4.032128"
         sodipodi:open="true" /><ellipse
         style="fill:none;stroke:#0000ff;stroke-width:0.0838896"
         id="path300-2"
         cx="53.31274"
         cy="-46.608471"
         rx="45.838837"
         ry="9.5284977" /><path
         style="fill:#e9afaf;stroke:#000000;stroke-width:0.39;stroke-dasharray:none;stroke-dashoffset:0"
         d="m 20.006546,-89.317765 40.408748,52.121756"
         id="path3669"
         sodipodi:nodetypes="cc" /><path
         style="fill:#e9afaf;stroke:#000000;stroke-width:0.39;stroke-dasharray:none;stroke-dashoffset:0"
         d="M 69.441006,-25.17696 89.858714,1.1590908"
         id="path3669-3"
         sodipodi:nodetypes="cc" /><path
         style="fill:#e9afaf;stroke:#000000;stroke-width:0.39;stroke-dasharray:1.56, 1.56;stroke-dashoffset:1.91099"
         d="m 60.443286,-37.174308 9.056367,11.674223"
         id="path3669-0" /><path
         style="fill:#ffffff;stroke:#0000ff;stroke-width:0.14;stroke-dasharray:none;stroke-dashoffset:0;stroke-opacity:1"
         d="M 53.31274,-37.079978 V -56.136972"
         id="path3843" /><path
         style="fill:#ffffff;stroke:#000000;stroke-width:0.5;stroke-dasharray:0.5, 1.5;stroke-dashoffset:0"
         d="m 53.312738,-46.608479 20.929985,8.477253"
         id="path3931"
         sodipodi:nodetypes="cc" /><ellipse
         style="fill:#e9afaf;stroke:#000000;stroke-width:0.064674;stroke-dasharray:none;stroke-dashoffset:0"
         id="path3667"
         cx="53.31274"
         cy="-46.608471"
         rx="0.57396948"
         ry="0.6151579" /><ellipse
         style="fill:#d40000;fill-opacity:1;stroke:#000000;stroke-width:0.194768;stroke-dasharray:none;stroke-dashoffset:0"
         id="path3667-1"
         cx="173.87283"
         cy="-23.305643"
         rx="1.8855634"
         ry="1.6982665" /><path
         style="fill:none;stroke:#000000;stroke-width:0.25;stroke-dasharray:none;stroke-dashoffset:0"
         d="m 62.185209,-34.92886 c 1.65401,-1.185542 3.243924,-5.003386 3.273977,-6.831217"
         id="path3989"
         sodipodi:nodetypes="cc" /><g
         inkscape:label=""
         transform="matrix(1.44,0,0,1.44,60.731261,-41.757559)"
         id="g7869"><g
   clip-path="url(#clipPath2726)"
   id="g16"
   transform="matrix(0.352778,0,0,0.352778,-0.104731,0.0395993)">
    <g
   fill="#000000"
   fill-opacity="1"
   id="g14">
      <g
   id="use12"
   transform="translate(0,6.9190001)">
        <path
   d="m 5.734375,-5.671875 c 0,-0.75 -0.546875,-1.359375 -1.359375,-1.359375 -0.578125,0 -0.859375,0.15625 -1.203125,0.40625 C 2.625,-6.21875 2.078125,-5.25 1.890625,-4.5 L 0.296875,1.828125 C 0.296875,1.875 0.34375,1.9375 0.421875,1.9375 0.5,1.9375 0.53125,1.90625 0.53125,1.890625 L 1.234375,-0.875 c 0.1875,0.609375 0.625,0.96875 1.359375,0.96875 C 3.3125,0.09375 4.0625,-0.25 4.515625,-0.6875 5,-1.140625 5.3125,-1.78125 5.3125,-2.515625 c 0,-0.71875 -0.375,-1.25 -0.734375,-1.484375 0.578125,-0.34375 1.15625,-0.953125 1.15625,-1.671875 z M 3.9375,-4.015625 c -0.125,0.046875 -0.234375,0.0625 -0.484375,0.0625 -0.140625,0 -0.328125,0.015625 -0.4375,-0.03125 0.03125,-0.109375 0.390625,-0.078125 0.5,-0.078125 0.203125,0 0.296875,0 0.421875,0.046875 z M 5.171875,-5.90625 c 0,0.703125 -0.375,1.421875 -0.890625,1.734375 C 4,-4.28125 3.8125,-4.296875 3.515625,-4.296875 c -0.21875,0 -0.78125,-0.015625 -0.78125,0.3125 0,0.28125 0.515625,0.25 0.6875,0.25 0.375,0 0.53125,0 0.828125,-0.125 0.375,0.359375 0.421875,0.671875 0.4375,1.125 0.015625,0.578125 -0.21875,1.328125 -0.5,1.71875 C 3.796875,-0.484375 3.125,-0.125 2.5625,-0.125 c -0.765625,0 -1.140625,-0.578125 -1.140625,-1.28125 0,-0.09375 0,-0.25 0.046875,-0.4375 L 2.109375,-4.359375 C 2.328125,-5.21875 3.046875,-6.8125 4.25,-6.8125 c 0.578125,0 0.921875,0.3125 0.921875,0.90625 z m 0,0"
   id="path22" />
      </g>
    </g>
  </g>
</g><g
         inkscape:label=""
         transform="matrix(1.44,0,0,1.44,58.517044,-48.139582)"
         id="g7963"><g
   clip-path="url(#clipPath9208)"
   id="g7961"
   transform="matrix(0.352778,0,0,0.352778,-0.143316,0.0413632)">
    <g
   fill="#000000"
   fill-opacity="1"
   id="g7959">
      <g
   id="g7957"
   transform="translate(0,4.289)">
        <path
   d="m 4.75,-2.359375 c 0,-1.5625 -0.921875,-2.046875 -1.65625,-2.046875 -1.375,0 -2.6875,1.421875 -2.6875,2.828125 0,0.9375 0.59375,1.6875 1.625,1.6875 0.625,0 1.34375,-0.234375 2.09375,-0.84375 0.125,0.53125 0.453125,0.84375 0.90625,0.84375 0.53125,0 0.84375,-0.546875 0.84375,-0.703125 0,-0.078125 -0.0625,-0.109375 -0.125,-0.109375 -0.0625,0 -0.09375,0.03125 -0.125,0.109375 -0.1875,0.484375 -0.546875,0.484375 -0.5625,0.484375 -0.3125,0 -0.3125,-0.78125 -0.3125,-1.015625 0,-0.203125 0,-0.234375 0.109375,-0.34375 C 5.796875,-2.65625 6,-3.8125 6,-3.8125 6,-3.84375 5.984375,-3.921875 5.875,-3.921875 c -0.09375,0 -0.09375,0.03125 -0.140625,0.21875 -0.1875,0.625 -0.515625,1.375 -0.984375,1.96875 z m -0.65625,1.375 c -0.890625,0.765625 -1.65625,0.875 -2.046875,0.875 -0.59375,0 -0.90625,-0.453125 -0.90625,-1.09375 0,-0.484375 0.265625,-1.5625 0.578125,-2.0625 C 2.1875,-4 2.734375,-4.1875 3.078125,-4.1875 c 0.984375,0 0.984375,1.3125 0.984375,2.078125 0,0.375 0,0.953125 0.03125,1.125 z m 0,0"
   id="path7955" />
      </g>
    </g>
  </g>
</g><text
         xml:space="preserve"
         style="font-size:2.46944px;line-height:0.5;font-family:'Noto Sans';-inkscape-font-specification:'Noto Sans';fill:#000000;stroke:none;stroke-width:0.3;stroke-dasharray:1.2, 1.2;stroke-dashoffset:1.47;stroke-opacity:1"
         x="158.1311"
         y="-88.04068"
         id="text8818"><tspan
           sodipodi:role="line"
           id="tspan8816"
           style="stroke:none;stroke-width:0.3"
           x="158.1311"
           y="-88.04068">0°</tspan></text><text
         xml:space="preserve"
         style="font-size:2.46944px;line-height:0.5;font-family:'Noto Sans';-inkscape-font-specification:'Noto Sans';fill:#000000;stroke:none;stroke-width:0.3;stroke-dasharray:1.2, 1.2;stroke-dashoffset:1.47;stroke-opacity:1"
         x="181.55664"
         y="-81.661255"
         id="text8818-4"><tspan
           sodipodi:role="line"
           id="tspan8816-7"
           style="stroke:none;stroke-width:0.3"
           x="181.55664"
           y="-81.661255">30°</tspan></text><text
         xml:space="preserve"
         style="font-size:2.46944px;line-height:0.5;font-family:'Noto Sans';-inkscape-font-specification:'Noto Sans';fill:#000000;stroke:none;stroke-width:0.3;stroke-dasharray:1.2, 1.2;stroke-dashoffset:1.47;stroke-opacity:1"
         x="-44.008259"
         y="-176.74673"
         id="text8818-4-6"
         transform="rotate(90)"><tspan
           sodipodi:role="line"
           id="tspan8816-7-9"
           style="stroke:none;stroke-width:0.3"
           x="-44.008259"
           y="-176.74673">30°</tspan></text><text
         xml:space="preserve"
         style="font-size:2.46944px;line-height:0.5;font-family:'Noto Sans';-inkscape-font-specification:'Noto Sans';fill:#000000;stroke:none;stroke-width:0.3;stroke-dasharray:1.2, 1.2;stroke-dashoffset:1.47;stroke-opacity:1"
         x="199.48636"
         y="-64.063553"
         id="text8818-8"><tspan
           sodipodi:role="line"
           id="tspan8816-4"
           style="stroke:none;stroke-width:0.3"
           x="199.48636"
           y="-64.063553">60°</tspan></text><text
         xml:space="preserve"
         style="font-size:2.46944px;line-height:0.5;font-family:'Noto Sans';-inkscape-font-specification:'Noto Sans';fill:#000000;stroke:none;stroke-width:0.3;stroke-dasharray:1.2, 1.2;stroke-dashoffset:1.47;stroke-opacity:1"
         x="-44.021275"
         y="-192.12141"
         id="text8818-8-3"
         transform="rotate(90)"><tspan
           sodipodi:role="line"
           id="tspan8816-4-7"
           style="stroke:none;stroke-width:0.3"
           x="-44.021275"
           y="-192.12141">60°</tspan></text><text
         xml:space="preserve"
         style="font-size:2.46944px;line-height:0.5;font-family:'Noto Sans';-inkscape-font-specification:'Noto Sans';fill:#000000;stroke:none;stroke-width:0.3;stroke-dasharray:1.2, 1.2;stroke-dashoffset:1.47;stroke-opacity:1"
         x="41.249985"
         y="141.87926"
         id="text8818-4-6-4"
         transform="rotate(-90)"><tspan
           sodipodi:role="line"
           id="tspan8816-7-9-5"
           style="stroke:none;stroke-width:0.3"
           x="41.249985"
           y="141.87926">30°</tspan></text><text
         xml:space="preserve"
         style="font-size:2.46944px;line-height:0.5;font-family:'Noto Sans';-inkscape-font-specification:'Noto Sans';fill:#000000;stroke:none;stroke-width:0.3;stroke-dasharray:1.2, 1.2;stroke-dashoffset:1.47;stroke-opacity:1"
         x="41.236969"
         y="126.17384"
         id="text8818-8-3-2"
         transform="rotate(-90)"><tspan
           sodipodi:role="line"
           id="tspan8816-4-7-5"
           style="stroke:none;stroke-width:0.3"
           x="41.236969"
           y="126.17384">60°</tspan></text><text
         xml:space="preserve"
         style="font-size:2.46944px;line-height:0.5;font-family:'Noto Sans';-inkscape-font-specification:'Noto Sans';fill:#000000;stroke:none;stroke-width:0.3;stroke-dasharray:1.2, 1.2;stroke-dashoffset:1.47;stroke-opacity:1"
         x="206.24222"
         y="-39.946571"
         id="text8818-8-5"><tspan
           sodipodi:role="line"
           id="tspan8816-4-0"
           style="stroke:none;stroke-width:0.3"
           x="206.24222"
           y="-39.946571">90°</tspan></text><text
         xml:space="preserve"
         style="font-size:2.46944px;line-height:0.5;font-family:'Noto Sans';-inkscape-font-specification:'Noto Sans';fill:#000000;stroke:none;stroke-width:0.3;stroke-dasharray:1.2, 1.2;stroke-dashoffset:1.47;stroke-opacity:1"
         x="200.30833"
         y="-15.758715"
         id="text8818-8-5-3"><tspan
           sodipodi:role="line"
           id="tspan8816-4-0-6"
           style="stroke:none;stroke-width:0.3"
           x="200.30833"
           y="-15.758715">120°</tspan></text><text
         xml:space="preserve"
         style="font-size:2.46944px;line-height:0.5;font-family:'Noto Sans';-inkscape-font-specification:'Noto Sans';fill:#000000;stroke:none;stroke-width:0.3;stroke-dasharray:1.2, 1.2;stroke-dashoffset:1.47;stroke-opacity:1"
         x="181.12569"
         y="1.1728103"
         id="text8818-8-5-3-1"><tspan
           sodipodi:role="line"
           id="tspan8816-4-0-6-0"
           style="stroke:none;stroke-width:0.3"
           x="181.12569"
           y="1.1728103">150°</tspan></text><text
         xml:space="preserve"
         style="font-size:2.46944px;line-height:0.5;font-family:'Noto Sans';-inkscape-font-specification:'Noto Sans';fill:#000000;stroke:none;stroke-width:0.3;stroke-dasharray:1.2, 1.2;stroke-dashoffset:1.47;stroke-opacity:1"
         x="156.66919"
         y="7.744988"
         id="text8818-8-5-3-1-6"><tspan
           sodipodi:role="line"
           id="tspan8816-4-0-6-0-3"
           style="stroke:none;stroke-width:0.3"
           x="156.66919"
           y="7.744988">180° S</tspan></text><text
         xml:space="preserve"
         style="font-size:2.46944px;line-height:0.5;font-family:'Noto Sans';-inkscape-font-specification:'Noto Sans';fill:#000000;stroke:none;stroke-width:0.3;stroke-dasharray:1.2, 1.2;stroke-dashoffset:1.47;stroke-opacity:1"
         x="132.17126"
         y="1.1808348"
         id="text8818-8-5-3-1-6-2"><tspan
           sodipodi:role="line"
           id="tspan8816-4-0-6-0-3-0"
           style="stroke:none;stroke-width:0.3"
           x="132.17126"
           y="1.1808348">210°</tspan></text><text
         xml:space="preserve"
         style="font-size:2.46944px;line-height:0.5;font-family:'Noto Sans';-inkscape-font-specification:'Noto Sans';fill:#000000;stroke:none;stroke-width:0.3;stroke-dasharray:1.2, 1.2;stroke-dashoffset:1.47;stroke-opacity:1"
         x="114.69162"
         y="-15.624928"
         id="text8818-8-5-3-1-6-2-6"><tspan
           sodipodi:role="line"
           id="tspan8816-4-0-6-0-3-0-1"
           style="stroke:none;stroke-width:0.3"
           x="114.69162"
           y="-15.624928">240°</tspan></text><text
         xml:space="preserve"
         style="font-size:2.46944px;line-height:0.5;font-family:'Noto Sans';-inkscape-font-specification:'Noto Sans';fill:#000000;stroke:none;stroke-width:0.3;stroke-dasharray:1.2, 1.2;stroke-dashoffset:1.47;stroke-opacity:1"
         x="107.93109"
         y="-39.946571"
         id="text8818-8-5-3-1-6-2-6-5"><tspan
           sodipodi:role="line"
           id="tspan8816-4-0-6-0-3-0-1-5"
           style="stroke:none;stroke-width:0.3"
           x="107.93109"
           y="-39.946571">270°</tspan></text><text
         xml:space="preserve"
         style="font-size:2.46944px;line-height:0.5;font-family:'Noto Sans';-inkscape-font-specification:'Noto Sans';fill:#000000;stroke:none;stroke-width:0.3;stroke-dasharray:1.2, 1.2;stroke-dashoffset:1.47;stroke-opacity:1"
         x="113.87115"
         y="-63.559868"
         id="text8818-8-5-3-1-6-2-6-5-4"><tspan
           sodipodi:role="line"
           id="tspan8816-4-0-6-0-3-0-1-5-7"
           style="stroke:none;stroke-width:0.3"
           x="113.87115"
           y="-63.559868">300°</tspan></text><text
         xml:space="preserve"
         style="font-size:2.46944px;line-height:0.5;font-family:'Noto Sans';-inkscape-font-specification:'Noto Sans';fill:#000000;stroke:none;stroke-width:0.3;stroke-dasharray:1.2, 1.2;stroke-dashoffset:1.47;stroke-opacity:1"
         x="131.80066"
         y="-80.758011"
         id="text8818-8-5-3-1-6-2-6-5-4-6"><tspan
           sodipodi:role="line"
           id="tspan8816-4-0-6-0-3-0-1-5-7-5"
           style="stroke:none;stroke-width:0.3"
           x="131.80066"
           y="-80.758011">330°</tspan></text><g
         inkscape:label=""
         transform="matrix(1.6535068,0,0,1.6535068,176.22208,-30.074996)"
         id="g10050"><g
   clip-path="url(#clipPath8910)"
   id="g37"
   transform="matrix(0.352778,0,0,0.352778,-0.347266,0.00436558)">
    <g
   fill="#000000"
   fill-opacity="1"
   id="g35">
      <g
   id="use33"
   transform="translate(0,7.4720001)">
        <path
   d="m 3.296875,2.390625 c 0,-0.03125 0,-0.046875 -0.171875,-0.21875 C 1.890625,0.921875 1.5625,-0.96875 1.5625,-2.5 c 0,-1.734375 0.375,-3.46875 1.609375,-4.703125 0.125,-0.125 0.125,-0.140625 0.125,-0.171875 0,-0.078125 -0.03125,-0.109375 -0.09375,-0.109375 -0.109375,0 -1,0.6875 -1.59375,1.953125 -0.5,1.09375 -0.625,2.203125 -0.625,3.03125 0,0.78125 0.109375,1.984375 0.65625,3.125 C 2.25,1.84375 3.09375,2.5 3.203125,2.5 c 0.0625,0 0.09375,-0.03125 0.09375,-0.109375 z m 0,0"
   id="path65" />
      </g>
    </g>
  </g>
  <g
   fill="#000000"
   fill-opacity="1"
   id="g41"
   transform="matrix(0.352778,0,0,0.352778,-0.347266,0.00436558)">
    <g
   id="use39"
   transform="translate(3.8740001,7.4720001)">
      <path
   d="m 4.75,-2.359375 c 0,-1.5625 -0.921875,-2.046875 -1.65625,-2.046875 -1.375,0 -2.6875,1.421875 -2.6875,2.828125 0,0.9375 0.59375,1.6875 1.625,1.6875 0.625,0 1.34375,-0.234375 2.09375,-0.84375 0.125,0.53125 0.453125,0.84375 0.90625,0.84375 0.53125,0 0.84375,-0.546875 0.84375,-0.703125 0,-0.078125 -0.0625,-0.109375 -0.125,-0.109375 -0.0625,0 -0.09375,0.03125 -0.125,0.109375 -0.1875,0.484375 -0.546875,0.484375 -0.5625,0.484375 -0.3125,0 -0.3125,-0.78125 -0.3125,-1.015625 0,-0.203125 0,-0.234375 0.109375,-0.34375 C 5.796875,-2.65625 6,-3.8125 6,-3.8125 6,-3.84375 5.984375,-3.921875 5.875,-3.921875 c -0.09375,0 -0.09375,0.03125 -0.140625,0.21875 -0.1875,0.625 -0.515625,1.375 -0.984375,1.96875 z m -0.65625,1.375 c -0.890625,0.765625 -1.65625,0.875 -2.046875,0.875 -0.59375,0 -0.90625,-0.453125 -0.90625,-1.09375 0,-0.484375 0.265625,-1.5625 0.578125,-2.0625 C 2.1875,-4 2.734375,-4.1875 3.078125,-4.1875 c 0.984375,0 0.984375,1.3125 0.984375,2.078125 0,0.375 0,0.953125 0.03125,1.125 z m 0,0"
   id="path69" />
    </g>
  </g>
  <g
   clip-path="url(#clipPath8952)"
   id="g47"
   transform="matrix(0.352778,0,0,0.352778,-0.347266,0.00436558)">
    <g
   fill="#000000"
   fill-opacity="1"
   id="g45">
      <g
   id="use43"
   transform="translate(10.286926,7.4720001)">
        <path
   d="m 2.03125,-0.015625 c 0,-0.65625 -0.25,-1.046875 -0.640625,-1.046875 -0.328125,0 -0.53125,0.25 -0.53125,0.53125 C 0.859375,-0.265625 1.0625,0 1.390625,0 1.5,0 1.640625,-0.046875 1.734375,-0.125 1.765625,-0.15625 1.78125,-0.15625 1.78125,-0.15625 c 0.015625,0 0.015625,0 0.015625,0.140625 0,0.75 -0.34375,1.34375 -0.671875,1.671875 -0.109375,0.109375 -0.109375,0.125 -0.109375,0.15625 0,0.078125 0.046875,0.109375 0.09375,0.109375 0.109375,0 0.921875,-0.765625 0.921875,-1.9375 z m 0,0"
   id="path73" />
      </g>
    </g>
  </g>
  <g
   clip-path="url(#clipPath7828)"
   id="g53"
   transform="matrix(0.352778,0,0,0.352778,-0.347266,0.00436558)">
    <g
   fill="#000000"
   fill-opacity="1"
   id="g51">
      <g
   id="use49"
   transform="translate(14.708328,7.4720001)">
        <path
   d="m 5.734375,-5.671875 c 0,-0.75 -0.546875,-1.359375 -1.359375,-1.359375 -0.578125,0 -0.859375,0.15625 -1.203125,0.40625 C 2.625,-6.21875 2.078125,-5.25 1.890625,-4.5 L 0.296875,1.828125 C 0.296875,1.875 0.34375,1.9375 0.421875,1.9375 0.5,1.9375 0.53125,1.90625 0.53125,1.890625 L 1.234375,-0.875 c 0.1875,0.609375 0.625,0.96875 1.359375,0.96875 C 3.3125,0.09375 4.0625,-0.25 4.515625,-0.6875 5,-1.140625 5.3125,-1.78125 5.3125,-2.515625 c 0,-0.71875 -0.375,-1.25 -0.734375,-1.484375 0.578125,-0.34375 1.15625,-0.953125 1.15625,-1.671875 z M 3.9375,-4.015625 c -0.125,0.046875 -0.234375,0.0625 -0.484375,0.0625 -0.140625,0 -0.328125,0.015625 -0.4375,-0.03125 0.03125,-0.109375 0.390625,-0.078125 0.5,-0.078125 0.203125,0 0.296875,0 0.421875,0.046875 z M 5.171875,-5.90625 c 0,0.703125 -0.375,1.421875 -0.890625,1.734375 C 4,-4.28125 3.8125,-4.296875 3.515625,-4.296875 c -0.21875,0 -0.78125,-0.015625 -0.78125,0.3125 0,0.28125 0.515625,0.25 0.6875,0.25 0.375,0 0.53125,0 0.828125,-0.125 0.375,0.359375 0.421875,0.671875 0.4375,1.125 0.015625,0.578125 -0.21875,1.328125 -0.5,1.71875 C 3.796875,-0.484375 3.125,-0.125 2.5625,-0.125 c -0.765625,0 -1.140625,-0.578125 -1.140625,-1.28125 0,-0.09375 0,-0.25 0.046875,-0.4375 L 2.109375,-4.359375 C 2.328125,-5.21875 3.046875,-6.8125 4.25,-6.8125 c 0.578125,0 0.921875,0.3125 0.921875,0.90625 z m 0,0"
   id="path77" />
      </g>
    </g>
  </g>
  <g
   clip-path="url(#clipPath3214)"
   id="g59"
   transform="matrix(0.352778,0,0,0.352778,-0.347266,0.00436558)">
    <g
   fill="#000000"
   fill-opacity="1"
   id="g57">
      <g
   id="use55"
   transform="translate(20.872999,7.4720001)">
        <path
   d="m 2.875,-2.5 c 0,-0.765625 -0.109375,-1.96875 -0.65625,-3.109375 -0.59375,-1.21875 -1.453125,-1.875 -1.546875,-1.875 -0.0625,0 -0.109375,0.046875 -0.109375,0.109375 0,0.03125 0,0.046875 0.1875,0.234375 0.984375,0.984375 1.546875,2.5625 1.546875,4.640625 0,1.71875 -0.359375,3.46875 -1.59375,4.71875 C 0.5625,2.34375 0.5625,2.359375 0.5625,2.390625 0.5625,2.453125 0.609375,2.5 0.671875,2.5 0.765625,2.5 1.671875,1.8125 2.25,0.546875 2.765625,-0.546875 2.875,-1.65625 2.875,-2.5 Z m 0,0"
   id="path81" />
      </g>
    </g>
  </g>
</g><ellipse
         style="fill:#4d4d4d;fill-opacity:1;stroke:#000000;stroke-width:0.194768;stroke-dasharray:none;stroke-dashoffset:0"
         id="path3667-1-4"
         cx="69.592789"
         cy="-25.189981"
         rx="1.8855634"
         ry="1.6982665" /><ellipse
         style="fill:#d40000;stroke:#000000;stroke-width:0.140833;stroke-dasharray:none;stroke-dashoffset:0"
         id="path3667-1-4-5"
         cx="69.540726"
         cy="-40.217209"
         rx="1.9125308"
         ry="0.87541306" /><path
         style="opacity:1;fill:#ffffff;fill-opacity:0.303175;stroke:#000000;stroke-width:0.5;stroke-dasharray:0.5, 1.5;stroke-dashoffset:2.44998;stroke-opacity:1"
         d="M 69.592789,-24.981052 V -40.014585"
         id="path13088" /><text
         xml:space="preserve"
         style="font-size:5.15471px;line-height:0.5;font-family:'Noto Sans';-inkscape-font-specification:'Noto Sans';opacity:0.743725;fill:#000000;fill-opacity:1;fill-rule:evenodd;stroke:none;stroke-width:0.276146"
         x="51.283951"
         y="-57.966599"
         id="text391"><tspan
           sodipodi:role="line"
           id="tspan389"
           style="fill:#000000;fill-opacity:1;stroke:none;stroke-width:0.276146"
           x="51.283951"
           y="-57.966599">N</tspan></text><text
         xml:space="preserve"
         style="font-size:5.15471px;line-height:0.5;font-family:'Noto Sans';-inkscape-font-specification:'Noto Sans';opacity:0.743725;fill:#000000;fill-opacity:1;fill-rule:evenodd;stroke:none;stroke-width:0.276146"
         x="100.17435"
         y="-44.838249"
         id="text391-3"><tspan
           sodipodi:role="line"
           id="tspan389-6"
           style="fill:#000000;fill-opacity:1;stroke:none;stroke-width:0.276146"
           x="100.17435"
           y="-44.838249">E</tspan></text><text
         xml:space="preserve"
         style="font-size:5.15471px;line-height:0.5;font-family:'Noto Sans';-inkscape-font-specification:'Noto Sans';opacity:0.743725;fill:#000000;fill-opacity:1;fill-rule:evenodd;stroke:none;stroke-width:0.276146"
         x="2.2899683"
         y="-44.838249"
         id="text391-3-7"><tspan
           sodipodi:role="line"
           id="tspan389-6-5"
           style="fill:#000000;fill-opacity:1;stroke:none;stroke-width:0.276146"
           x="2.2899683"
           y="-44.838249">W</tspan></text><text
         xml:space="preserve"
         style="font-size:5.15471px;line-height:0.5;font-family:'Noto Sans';-inkscape-font-specification:'Noto Sans';opacity:0.743725;fill:#000000;fill-opacity:1;fill-rule:evenodd;stroke:none;stroke-width:0.276146"
         x="51.957462"
         y="-31.518341"
         id="text391-3-3"><tspan
           sodipodi:role="line"
           id="tspan389-6-56"
           style="fill:#000000;fill-opacity:1;stroke:none;stroke-width:0.276146"
           x="51.957462"
           y="-31.518341">S</tspan></text></g><text
       xml:space="preserve"
       style="font-size:2.46944px;line-height:0.5;font-family:'Noto Sans';-inkscape-font-specification:'Noto Sans';opacity:1;fill:#000000;fill-opacity:1;fill-rule:evenodd;stroke:none;stroke-width:0.132292"
       x="207.00803"
       y="56.160221"
       id="text1304"><tspan
         sodipodi:role="line"
         id="tspan1302"
         style="fill:#000000;fill-opacity:1;stroke-width:0.132292"
         x="207.00803"
         y="56.160221">E</tspan></text><text
       xml:space="preserve"
       style="font-size:2.46944px;line-height:0.5;font-family:'Noto Sans';-inkscape-font-specification:'Noto Sans';fill:#000000;fill-opacity:1;fill-rule:evenodd;stroke:none;stroke-width:0.132292"
       x="160.81068"
       y="5.3527851"
       id="text1304-2"><tspan
         sodipodi:role="line"
         id="tspan1302-9"
         style="fill:#000000;fill-opacity:1;stroke-width:0.132292"
         x="160.81068"
         y="5.3527851">N</tspan></text><text
       xml:space="preserve"
       style="font-size:2.46944px;line-height:0.5;font-family:'Noto Sans';-inkscape-font-specification:'Noto Sans';fill:#000000;fill-opacity:1;fill-rule:evenodd;stroke:none;stroke-width:0.132292"
       x="109.04324"
       y="56.356663"
       id="text1304-1"><tspan
         sodipodi:role="line"
         id="tspan1302-2"
         style="fill:#000000;fill-opacity:1;stroke-width:0.132292"
         x="109.04324"
         y="56.356663">W</tspan></text></g></svg>
