<?xml version="1.0" encoding="UTF-8" standalone="no"?>
<!-- Created with Inkscape (http://www.inkscape.org/) -->

<svg
   xml:space="preserve"
   id="svg5"
   version="1.1"
   viewBox="0 0 207.63653 101.72406"
   height="101.72404mm"
   width="207.63654mm"
   sodipodi:docname="planes.svg"
   inkscape:version="1.2.2 (b0a8486541, 2022-12-01)"
   xmlns:inkscape="http://www.inkscape.org/namespaces/inkscape"
   xmlns:sodipodi="http://sodipodi.sourceforge.net/DTD/sodipodi-0.dtd"
   xmlns="http://www.w3.org/2000/svg"
   xmlns:svg="http://www.w3.org/2000/svg"><sodipodi:namedview
     id="namedview7"
     pagecolor="#ffffff"
     bordercolor="#000000"
     borderopacity="0.25"
     inkscape:showpageshadow="2"
     inkscape:pageopacity="0.0"
     inkscape:pagecheckerboard="0"
     inkscape:deskcolor="#d1d1d1"
     inkscape:document-units="mm"
     showgrid="false"
     inkscape:zoom="1.4142136"
     inkscape:cx="388.55518"
     inkscape:cy="178.89802"
     inkscape:window-width="1920"
     inkscape:window-height="995"
     inkscape:window-x="0"
     inkscape:window-y="0"
     inkscape:window-maximized="1"
     inkscape:current-layer="layer1" /><defs
     id="defs2"><clipPath
       id="clipPath1079">
      <path
   clip-rule="nonzero"
   d="M 0,0 H 5 V 6.226562 H 0 Z m 0,0"
   id="path7236" />
    </clipPath><clipPath
       id="clipPath5476">
      <path
   clip-rule="nonzero"
   d="M 0,0 H 4.804688 V 6.917969 H 0 Z m 0,0"
   id="path3383" />
    </clipPath><clipPath
       id="clipPath6496">
      <path
   clip-rule="nonzero"
   d="M 0,0 H 4 V 9.964844 H 0 Z m 0,0"
   id="path5391" />
    </clipPath><clipPath
       id="clipPath4636">
      <path
   clip-rule="nonzero"
   d="m 4,3 h 8 V 9.964844 H 4 Z m 0,0"
   id="path4260" />
    </clipPath><clipPath
       id="clipPath4900">
      <path
   clip-rule="nonzero"
   d="m 18,0 h 4 v 9.964844 h -4 z m 0,0"
   id="path6679" />
    </clipPath></defs><g
     inkscape:label="Layer 1"
     inkscape:groupmode="layer"
     id="layer1"
     transform="translate(1.4740863,-122.71926)"><ellipse
       style="fill:#e6e6e6;stroke:#000000;stroke-width:0.184216"
       id="path300-1"
       cx="155.44507"
       cy="173.91483"
       rx="45.78867"
       ry="45.998043"
       inkscape:export-filename="planes.png"
       inkscape:export-xdpi="96"
       inkscape:export-ydpi="96" /><path
       style="fill:none;stroke:#0000ff;stroke-width:0.184216"
       id="path300-2-9-4"
       sodipodi:type="arc"
       sodipodi:cx="49.479744"
       sodipodi:cy="167.59576"
       sodipodi:rx="45.78867"
       sodipodi:ry="45.998043"
       sodipodi:start="6.2810024"
       sodipodi:end="3.1284058"
       sodipodi:arc-type="arc"
       d="M 95.268304,167.49535 A 45.78867,45.998043 0 0 1 49.831621,213.59245 45.78867,45.998043 0 0 1 3.6950555,168.20232"
       sodipodi:open="true" /><path
       style="fill:none;stroke:#0000ff;stroke-width:0.184216;stroke-dasharray:0.736866, 0.736866;stroke-dashoffset:0"
       id="path300-2-9-1-9"
       sodipodi:type="arc"
       sodipodi:cx="49.479744"
       sodipodi:cy="-168.80887"
       sodipodi:rx="45.78867"
       sodipodi:ry="45.998043"
       sodipodi:start="6.2810024"
       sodipodi:end="3.1284058"
       sodipodi:arc-type="arc"
       d="m 95.268304,-168.90928 a 45.78867,45.998043 0 0 1 -45.436683,46.0971 45.78867,45.998043 0 0 1 -46.1365655,-45.39014"
       sodipodi:open="true"
       transform="scale(1,-1)" /><path
       style="fill:none;stroke:#000000;stroke-width:0.174896"
       d="m 109.65638,173.91483 h 91.57735"
       id="path513-2"
       sodipodi:nodetypes="cc" /><path
       style="fill:none;stroke:#000000;stroke-width:0.174896"
       d="M 155.44505,219.91287 V 127.91679"
       id="path564-0" /><path
       style="fill:none;stroke:#000000;stroke-width:0.174896"
       d="m 155.44505,219.91287 c 23.6417,-23.76888 21.70596,-71.67012 0,-91.99608"
       id="path564-3-68"
       sodipodi:nodetypes="cc" /><path
       style="fill:none;stroke:#000000;stroke-width:0.174896"
       d="m 155.44505,219.85958 c 43.24573,-13.96688 44.05455,-75.78698 0,-91.99609"
       id="path564-3-6-9"
       sodipodi:nodetypes="cc" /><path
       style="fill:none;stroke:#000000;stroke-width:0.174896"
       d="m 155.37703,219.88289 c -23.6417,-23.76889 -21.70596,-71.67013 0,-91.9961"
       id="path564-3-7-2"
       sodipodi:nodetypes="cc" /><g
       id="g12948"
       transform="rotate(-45,210.9848,281.77376)"><path
         style="fill:none;stroke:#ff0000;stroke-width:0.174896"
         d="m 247.98005,212.09791 c -23.6417,-23.76889 -21.70596,-71.67013 0,-91.9961"
         id="path564-3-7-2-5-7"
         sodipodi:nodetypes="cc" /></g><path
       style="fill:none;stroke:#000000;stroke-width:0.174896"
       d="m 155.33911,219.88287 c -43.24573,-13.96689 -44.05455,-75.78699 0,-91.9961"
       id="path564-3-6-5-6"
       sodipodi:nodetypes="cc" /><path
       style="fill:none;stroke:#000000;stroke-width:0.174896"
       d="m 132.30006,134.22581 c 7.97637,10.57765 40.58243,9.57398 46.11073,-0.10496"
       id="path669-6"
       sodipodi:nodetypes="cc" /><path
       style="fill:none;stroke:#000000;stroke-width:0.174896"
       d="m 115.66525,151.13584 c 17.54518,8.4212 62.10507,8.70649 79.39578,-0.28632"
       id="path669-3-4"
       sodipodi:nodetypes="cc" /><path
       style="fill:none;stroke:#000000;stroke-width:0.174896"
       d="m 132.30006,213.70779 c 7.97637,-10.57764 40.58243,-9.57398 46.11073,0.10495"
       id="path669-5-9"
       sodipodi:nodetypes="cc" /><path
       style="fill:none;stroke:#000000;stroke-width:0.174896"
       d="m 115.66525,197.03163 c 17.54518,-8.42121 62.10507,-8.70649 79.39578,0.28631"
       id="path669-3-6-5"
       sodipodi:nodetypes="cc" /><path
       style="fill:#2a7fff;stroke:#0000ff;stroke-width:0.0707107;stroke-dasharray:none;stroke-dashoffset:0"
       d="m 47.190511,213.40218 c -4.646335,-0.31887 -8.392345,-1.04138 -12.293351,-2.37108 -5.401117,-1.84103 -10.190956,-4.52857 -14.600644,-8.19233 -1.497829,-1.24446 -4.470487,-4.2061 -5.67276,-5.65173 C 8.3671595,189.66399 4.7488057,180.798 3.9692088,171.08037 c -0.1393944,-1.73755 -0.1270958,-1.79728 0.2643804,-1.2839 1.6322302,2.14048 7.1155318,4.20562 14.9599708,5.63426 21.41892,3.90085 54.309792,2.88309 69.38714,-2.14707 2.955014,-0.98587 5.418343,-2.34564 6.217229,-3.43196 l 0.287282,-0.39064 -0.0011,0.27567 c -0.0016,0.46663 -0.183112,2.45925 -0.336073,3.69005 -1.084324,8.72503 -4.884666,17.29313 -10.683976,24.08766 -1.115491,1.30693 -3.97147,4.13484 -5.255699,5.20406 -7.672554,6.38797 -16.677986,9.99153 -26.613363,10.64944 -1.288282,0.0853 -3.99102,0.1038 -5.004623,0.0342 z"
       id="path3074-0" /><ellipse
       style="fill:#80b3ff;stroke:#0000ff;stroke-width:0.0838896"
       id="path300-2-3-8"
       cx="49.533897"
       cy="168.20251"
       rx="45.838837"
       ry="9.5284977" /><path
       style="opacity:0.339066;fill:#ff5555;stroke:#000000;stroke-width:0.3;stroke-dasharray:none;stroke-dashoffset:0;stroke-opacity:1"
       d="M 27.219749,132.106 90.78449,145.31187 66.966875,224.25247 7.643043,204.60532 Z"
       id="path11761"
       sodipodi:nodetypes="ccccc" /><ellipse
       style="fill:none;stroke:#0000ff;stroke-width:0.0838896"
       id="path300-2-1"
       cx="49.486832"
       cy="168.20253"
       rx="45.838837"
       ry="9.5284977" /><path
       style="fill:#d40000;fill-opacity:1;stroke:#000000;stroke-width:0.4;stroke-dasharray:0.4, 1.6;stroke-dashoffset:0;stroke-opacity:1"
       d="M 37.96771,206.14622 V 173.17464"
       id="path14636" /><path
       style="fill:#ffffff;stroke:#000000;stroke-width:0.4;stroke-dasharray:0.4, 1.6;stroke-dashoffset:0"
       d="M 49.48683,168.20252 35.756864,213.48044"
       id="path3931-2-1-7"
       sodipodi:nodetypes="cc" /><path
       style="fill:#ffffff;stroke:#0000ff;stroke-width:0.14;stroke-dasharray:none;stroke-dashoffset:0;stroke-opacity:1"
       d="M 49.48683,177.73102 V 158.67403"
       id="path3843-7" /><path
       style="fill:#ffffff;stroke:#0000ff;stroke-width:0.14;stroke-dasharray:none;stroke-dashoffset:0;stroke-opacity:1"
       d="M 95.271519,168.20252 H 3.702141"
       id="path3843-9-2"
       sodipodi:nodetypes="cc" /><path
       style="fill:#ffffff;stroke:#000000;stroke-width:0.4;stroke-dasharray:0.4, 1.6;stroke-dashoffset:0"
       d="m 19.405937,161.32549 62.193347,13.97757"
       id="path3931-2"
       sodipodi:nodetypes="cc" /><path
       style="fill:none;stroke:#000000;stroke-width:0.297415;stroke-dasharray:none;stroke-opacity:1"
       id="path300-3-7"
       sodipodi:type="arc"
       sodipodi:cx="49.51329"
       sodipodi:cy="168.67239"
       sodipodi:rx="12.46153"
       sodipodi:ry="3.8282282"
       sodipodi:start="4.712389"
       sodipodi:end="0.43637878"
       sodipodi:arc-type="arc"
       d="m 49.51329,164.84417 a 12.46153,3.8282282 0 0 1 10.510104,1.77139 12.46153,3.8282282 0 0 1 0.783633,3.67487"
       sodipodi:open="true" /><path
       style="fill:#ffffff;stroke:#000000;stroke-width:0.4;stroke-dasharray:0.4, 1.6;stroke-dashoffset:0"
       d="m 49.48683,168.20252 -11.51912,4.97212"
       id="path3931-2-1"
       sodipodi:nodetypes="cc" /><ellipse
       style="fill:#e9afaf;stroke:#000000;stroke-width:0.064674;stroke-dasharray:none;stroke-dashoffset:0"
       id="path3667-6"
       cx="49.486832"
       cy="168.20253"
       rx="0.57396948"
       ry="0.6151579" /><path
       style="fill:none;stroke:#000000;stroke-width:0.2;stroke-dasharray:none;stroke-dashoffset:0"
       d="m 45.737559,179.05065 c -1.65401,-1.18554 -3.818795,-5.12615 -3.848848,-6.95398"
       id="path3989-0"
       sodipodi:nodetypes="cc" /><text
       xml:space="preserve"
       style="font-size:2.46944px;line-height:0.5;font-family:'Noto Sans';-inkscape-font-specification:'Noto Sans';fill:#000000;stroke:none;stroke-width:0.3;stroke-dasharray:1.2, 1.2;stroke-dashoffset:1.47;stroke-opacity:1"
       x="154.30519"
       y="126.77032"
       id="text8818-7"><tspan
         sodipodi:role="line"
         id="tspan8816-1"
         style="stroke:none;stroke-width:0.3"
         x="154.30519"
         y="126.77032">0° N</tspan></text><text
       xml:space="preserve"
       style="font-size:2.46944px;line-height:0.5;font-family:'Noto Sans';-inkscape-font-specification:'Noto Sans';fill:#000000;stroke:none;stroke-width:0.3;stroke-dasharray:1.2, 1.2;stroke-dashoffset:1.47;stroke-opacity:1"
       x="177.73073"
       y="133.14975"
       id="text8818-4-1"><tspan
         sodipodi:role="line"
         id="tspan8816-7-5"
         style="stroke:none;stroke-width:0.3"
         x="177.73073"
         y="133.14975">30°</tspan></text><text
       xml:space="preserve"
       style="font-size:2.46944px;line-height:0.5;font-family:'Noto Sans';-inkscape-font-specification:'Noto Sans';fill:#000000;stroke:none;stroke-width:0.3;stroke-dasharray:1.2, 1.2;stroke-dashoffset:1.47;stroke-opacity:1"
       x="195.66045"
       y="150.74745"
       id="text8818-8-7"><tspan
         sodipodi:role="line"
         id="tspan8816-4-6"
         style="stroke:none;stroke-width:0.3"
         x="195.66045"
         y="150.74745">60°</tspan></text><text
       xml:space="preserve"
       style="font-size:2.46944px;line-height:0.5;font-family:'Noto Sans';-inkscape-font-specification:'Noto Sans';fill:#000000;stroke:none;stroke-width:0.3;stroke-dasharray:1.2, 1.2;stroke-dashoffset:1.47;stroke-opacity:1"
       x="-172.81267"
       y="122.02013"
       id="text8818-4-6-4-6"
       transform="rotate(-90)"><tspan
         sodipodi:role="line"
         id="tspan8816-7-9-5-5"
         style="stroke:none;stroke-width:0.3"
         x="-172.81267"
         y="122.02013">30°</tspan></text><text
       xml:space="preserve"
       style="font-size:2.46944px;line-height:0.5;font-family:'Noto Sans';-inkscape-font-specification:'Noto Sans';fill:#000000;stroke:none;stroke-width:0.3;stroke-dasharray:1.2, 1.2;stroke-dashoffset:1.47;stroke-opacity:1"
       x="-171.61356"
       y="109.30072"
       id="text8818-4-6-4-6-5"
       transform="rotate(-90)"><tspan
         sodipodi:role="line"
         id="tspan8816-7-9-5-5-7"
         style="stroke:none;stroke-width:0.3"
         x="-171.61356"
         y="109.30072">0°</tspan></text><text
       xml:space="preserve"
       style="font-size:2.46944px;line-height:0.5;font-family:'Noto Sans';-inkscape-font-specification:'Noto Sans';fill:#000000;stroke:none;stroke-width:0.3;stroke-dasharray:1.2, 1.2;stroke-dashoffset:1.47;stroke-opacity:1"
       x="-172.32722"
       y="138.0985"
       id="text8818-8-3-2-6"
       transform="rotate(-90)"><tspan
         sodipodi:role="line"
         id="tspan8816-4-7-5-3"
         style="stroke:none;stroke-width:0.3"
         x="-172.32722"
         y="138.0985">60°</tspan></text><text
       xml:space="preserve"
       style="font-size:2.46944px;line-height:0.5;font-family:'Noto Sans';-inkscape-font-specification:'Noto Sans';fill:#000000;stroke:none;stroke-width:0.3;stroke-dasharray:1.2, 1.2;stroke-dashoffset:1.47;stroke-opacity:1"
       x="-172.32722"
       y="154.74455"
       id="text8818-8-3-2-6-4"
       transform="rotate(-90)"><tspan
         sodipodi:role="line"
         id="tspan8816-4-7-5-3-1"
         style="stroke:none;stroke-width:0.3"
         x="-172.32722"
         y="154.74455">90°</tspan></text><text
       xml:space="preserve"
       style="font-size:2.46944px;line-height:0.5;font-family:'Noto Sans';-inkscape-font-specification:'Noto Sans';fill:#000000;stroke:none;stroke-width:0.3;stroke-dasharray:1.2, 1.2;stroke-dashoffset:1.47;stroke-opacity:1"
       x="202.41631"
       y="174.86443"
       id="text8818-8-5-9"><tspan
         sodipodi:role="line"
         id="tspan8816-4-0-4"
         style="stroke:none;stroke-width:0.3"
         x="202.41631"
         y="174.86443">90°</tspan></text><text
       xml:space="preserve"
       style="font-size:2.46944px;line-height:0.5;font-family:'Noto Sans';-inkscape-font-specification:'Noto Sans';fill:#000000;stroke:none;stroke-width:0.3;stroke-dasharray:1.2, 1.2;stroke-dashoffset:1.47;stroke-opacity:1"
       x="196.48242"
       y="199.05229"
       id="text8818-8-5-3-8"><tspan
         sodipodi:role="line"
         id="tspan8816-4-0-6-1"
         style="stroke:none;stroke-width:0.3"
         x="196.48242"
         y="199.05229">120°</tspan></text><text
       xml:space="preserve"
       style="font-size:2.46944px;line-height:0.5;font-family:'Noto Sans';-inkscape-font-specification:'Noto Sans';fill:#000000;stroke:none;stroke-width:0.3;stroke-dasharray:1.2, 1.2;stroke-dashoffset:1.47;stroke-opacity:1"
       x="177.29977"
       y="215.98381"
       id="text8818-8-5-3-1-2"><tspan
         sodipodi:role="line"
         id="tspan8816-4-0-6-0-9"
         style="stroke:none;stroke-width:0.3"
         x="177.29977"
         y="215.98381">150°</tspan></text><text
       xml:space="preserve"
       style="font-size:2.46944px;line-height:0.5;font-family:'Noto Sans';-inkscape-font-specification:'Noto Sans';fill:#000000;stroke:none;stroke-width:0.3;stroke-dasharray:1.2, 1.2;stroke-dashoffset:1.47;stroke-opacity:1"
       x="152.84328"
       y="222.55598"
       id="text8818-8-5-3-1-6-3"><tspan
         sodipodi:role="line"
         id="tspan8816-4-0-6-0-3-9"
         style="stroke:none;stroke-width:0.3"
         x="152.84328"
         y="222.55598">180° S</tspan></text><text
       xml:space="preserve"
       style="font-size:2.46944px;line-height:0.5;font-family:'Noto Sans';-inkscape-font-specification:'Noto Sans';fill:#000000;stroke:none;stroke-width:0.3;stroke-dasharray:1.2, 1.2;stroke-dashoffset:1.47;stroke-opacity:1"
       x="128.34535"
       y="215.99184"
       id="text8818-8-5-3-1-6-2-0"><tspan
         sodipodi:role="line"
         id="tspan8816-4-0-6-0-3-0-8"
         style="stroke:none;stroke-width:0.3"
         x="128.34535"
         y="215.99184">210°</tspan></text><text
       xml:space="preserve"
       style="font-size:2.46944px;line-height:0.5;font-family:'Noto Sans';-inkscape-font-specification:'Noto Sans';fill:#000000;stroke:none;stroke-width:0.3;stroke-dasharray:1.2, 1.2;stroke-dashoffset:1.47;stroke-opacity:1"
       x="110.86571"
       y="199.18607"
       id="text8818-8-5-3-1-6-2-6-8"><tspan
         sodipodi:role="line"
         id="tspan8816-4-0-6-0-3-0-1-50"
         style="stroke:none;stroke-width:0.3"
         x="110.86571"
         y="199.18607">240°</tspan></text><text
       xml:space="preserve"
       style="font-size:2.46944px;line-height:0.5;font-family:'Noto Sans';-inkscape-font-specification:'Noto Sans';fill:#000000;stroke:none;stroke-width:0.3;stroke-dasharray:1.2, 1.2;stroke-dashoffset:1.47;stroke-opacity:1"
       x="104.10518"
       y="174.86443"
       id="text8818-8-5-3-1-6-2-6-5-9"><tspan
         sodipodi:role="line"
         id="tspan8816-4-0-6-0-3-0-1-5-6"
         style="stroke:none;stroke-width:0.3"
         x="104.10518"
         y="174.86443">270°</tspan></text><text
       xml:space="preserve"
       style="font-size:2.46944px;line-height:0.5;font-family:'Noto Sans';-inkscape-font-specification:'Noto Sans';fill:#000000;stroke:none;stroke-width:0.3;stroke-dasharray:1.2, 1.2;stroke-dashoffset:1.47;stroke-opacity:1"
       x="110.04523"
       y="151.25113"
       id="text8818-8-5-3-1-6-2-6-5-4-3"><tspan
         sodipodi:role="line"
         id="tspan8816-4-0-6-0-3-0-1-5-7-8"
         style="stroke:none;stroke-width:0.3"
         x="110.04523"
         y="151.25113">300°</tspan></text><text
       xml:space="preserve"
       style="font-size:2.46944px;line-height:0.5;font-family:'Noto Sans';-inkscape-font-specification:'Noto Sans';fill:#000000;stroke:none;stroke-width:0.3;stroke-dasharray:1.2, 1.2;stroke-dashoffset:1.47;stroke-opacity:1"
       x="127.97475"
       y="134.05299"
       id="text8818-8-5-3-1-6-2-6-5-4-6-5"><tspan
         sodipodi:role="line"
         id="tspan8816-4-0-6-0-3-0-1-5-7-5-6"
         style="stroke:none;stroke-width:0.3"
         x="127.97475"
         y="134.05299">330°</tspan></text><path
       style="fill:#ff5555;fill-opacity:0.303175;stroke:none;stroke-width:0.3;stroke-dasharray:none;stroke-dashoffset:0;stroke-opacity:1"
       d="m 68.884792,176.74302 c -14.272265,1.36952 -29.032367,1.4438 -49.643235,-1.34157 -0.775687,-0.10482 -0.0074,0.47739 0.03814,0.97485 3.398259,37.13316 41.771711,45.87573 62.4531,-1.42242"
       id="path11817-2"
       sodipodi:nodetypes="cssc" /><path
       style="fill:none;fill-opacity:0.303175;stroke:#4d4d4d;stroke-width:0.3;stroke-dasharray:none;stroke-dashoffset:0;stroke-opacity:1"
       d="m 19.491457,161.00576 c -6.099541,49.82256 38.191631,67.38376 62.230043,14.34428"
       id="path11817"
       sodipodi:nodetypes="cc" /><path
       style="fill:none;fill-opacity:0.303175;stroke:#d40000;stroke-width:0.3;stroke-dasharray:none;stroke-dashoffset:0;stroke-opacity:1"
       d="m 19.405937,161.32549 c 3.848792,9.98795 21.748315,16.32742 62.230043,14.34428"
       id="path11817-8"
       sodipodi:nodetypes="cc" /><g
       inkscape:label=""
       transform="matrix(1.44,0,0,1.44,52.788573,165.26413)"
       id="g16150"><g
   clip-path="url(#clipPath1079)"
   id="g16148"
   transform="matrix(0.352778,0,0,0.352778,-0.104731,0.0410104)">
    <g
   fill="#000000"
   fill-opacity="1"
   id="g16146">
      <g
   id="g16144"
   transform="translate(0,4.29)">
        <path
   d="m 0.328125,2.0937496 c -0.03125,0.125 -0.03125,0.140625 -0.03125,0.171875 0,0.140625 0.109375,0.265625 0.28125,0.265625 0.203125,0 0.328125,-0.1875 0.34375,-0.21875 0.0625,-0.078125 0.375,-1.42187484 0.640625,-2.49999984 0.203125,0.40625 0.515625,0.671875 0.984375,0.671875 C 3.71875,0.48437476 5,-0.92187536 5,-2.4062504 c 0,-1.0625 -0.65625,-1.625 -1.375,-1.625 -0.96875,0 -2.015625,1 -2.3125,2.21875 z m 2.21875,-1.82812484 c -0.703125,0 -0.859375,-0.796875 -0.859375,-0.890625 0,-0.03125 0.046875,-0.23437508 0.078125,-0.35937512 0.28125,-1.12500004 0.375,-1.48437504 0.59375,-1.87500004 0.4375,-0.734375 0.9375,-0.953125 1.234375,-0.953125 0.375,0 0.6875,0.296875 0.6875,0.984375 0,0.546875 -0.28125,1.65625 -0.546875,2.14062516 -0.328125,0.640625 -0.8125,0.953125 -1.1875,0.953125 z m 0,0"
   id="path16142" />
      </g>
    </g>
  </g>
</g><g
       inkscape:label=""
       transform="matrix(1.44,0,0,1.44,45.34937,170.69759)"
       id="g16825"><g
   clip-path="url(#clipPath5476)"
   id="g16823"
   transform="matrix(0.352778,0,0,0.352778,-0.148828,0.0620006)">
    <g
   fill="#000000"
   fill-opacity="1"
   id="g16821">
      <g
   id="g16819"
   transform="translate(0,6.9180002)">
        <path
   d="M 2.625,-4.359375 C 1.390625,-4.0625 0.421875,-2.765625 0.421875,-1.5625 0.421875,-0.59375 1.0625,0.125 2,0.125 c 1.15625,0 1.984375,-1.578125 1.984375,-2.953125 0,-0.90625 -0.390625,-1.40625 -0.734375,-1.84375 C 2.890625,-5.125 2.296875,-5.875 2.296875,-6.3125 c 0,-0.21875 0.203125,-0.453125 0.546875,-0.453125 0.3125,0 0.5,0.125 0.71875,0.265625 0.203125,0.125 0.390625,0.25 0.546875,0.25 C 4.359375,-6.25 4.5,-6.484375 4.5,-6.65625 4.5,-6.875 4.34375,-6.890625 3.984375,-6.984375 3.46875,-7.09375 3.328125,-7.09375 3.171875,-7.09375 c -0.78125,0 -1.140625,0.4375 -1.140625,1.03125 0,0.546875 0.296875,1.09375 0.59375,1.703125 z m 0.125,0.21875 c 0.25,0.46875 0.546875,1 0.546875,1.71875 0,0.65625 -0.375,2.328125 -1.296875,2.328125 -0.546875,0 -0.96875,-0.421875 -0.96875,-1.1875 0,-0.625 0.375,-2.5 1.71875,-2.859375 z m 0,0"
   id="path16817" />
      </g>
    </g>
  </g>
</g><g
       inkscape:label=""
       transform="matrix(1.6851169,0,0,1.6851169,142.65912,179.31041)"
       id="g17279"><g
   clip-path="url(#clipPath6496)"
   id="g34"
   transform="matrix(0.352778,0,0,0.352778,-0.347266,0.00436558)">
    <g
   fill="#000000"
   fill-opacity="1"
   id="g32">
      <g
   id="use30"
   transform="translate(0,7.4720001)">
        <path
   d="m 3.296875,2.390625 c 0,-0.03125 0,-0.046875 -0.171875,-0.21875 C 1.890625,0.921875 1.5625,-0.96875 1.5625,-2.5 c 0,-1.734375 0.375,-3.46875 1.609375,-4.703125 0.125,-0.125 0.125,-0.140625 0.125,-0.171875 0,-0.078125 -0.03125,-0.109375 -0.09375,-0.109375 -0.109375,0 -1,0.6875 -1.59375,1.953125 -0.5,1.09375 -0.625,2.203125 -0.625,3.03125 0,0.78125 0.109375,1.984375 0.65625,3.125 C 2.25,1.84375 3.09375,2.5 3.203125,2.5 c 0.0625,0 0.09375,-0.03125 0.09375,-0.109375 z m 0,0"
   id="path58" />
      </g>
    </g>
  </g>
  <g
   clip-path="url(#clipPath4636)"
   id="g42"
   transform="matrix(0.352778,0,0,0.352778,-0.347266,0.00436558)">
    <g
   fill="#000000"
   fill-opacity="1"
   id="g40">
      <g
   id="use36"
   transform="translate(3.8740001,7.4720001)">
        <path
   d="m 0.328125,1.71875 c -0.03125,0.125 -0.03125,0.140625 -0.03125,0.171875 0,0.140625 0.109375,0.265625 0.28125,0.265625 0.203125,0 0.328125,-0.1875 0.34375,-0.21875 0.0625,-0.078125 0.375,-1.421875 0.640625,-2.5 0.203125,0.40625 0.515625,0.671875 0.984375,0.671875 C 3.71875,0.109375 5,-1.296875 5,-2.78125 c 0,-1.0625 -0.65625,-1.625 -1.375,-1.625 -0.96875,0 -2.015625,1 -2.3125,2.21875 z m 2.21875,-1.828125 C 1.84375,-0.109375 1.6875,-0.90625 1.6875,-1 c 0,-0.03125 0.046875,-0.234375 0.078125,-0.359375 0.28125,-1.125 0.375,-1.484375 0.59375,-1.875 0.4375,-0.734375 0.9375,-0.953125 1.234375,-0.953125 0.375,0 0.6875,0.296875 0.6875,0.984375 0,0.546875 -0.28125,1.65625 -0.546875,2.140625 -0.328125,0.640625 -0.8125,0.953125 -1.1875,0.953125 z m 0,0"
   id="path62" />
      </g>
      <g
   id="use38"
   transform="translate(9.0246639,7.4720001)">
        <path
   d="m 2.03125,-0.015625 c 0,-0.65625 -0.25,-1.046875 -0.640625,-1.046875 -0.328125,0 -0.53125,0.25 -0.53125,0.53125 C 0.859375,-0.265625 1.0625,0 1.390625,0 1.5,0 1.640625,-0.046875 1.734375,-0.125 1.765625,-0.15625 1.78125,-0.15625 1.78125,-0.15625 c 0.015625,0 0.015625,0 0.015625,0.140625 0,0.75 -0.34375,1.34375 -0.671875,1.671875 -0.109375,0.109375 -0.109375,0.125 -0.109375,0.15625 0,0.078125 0.046875,0.109375 0.09375,0.109375 0.109375,0 0.921875,-0.765625 0.921875,-1.9375 z m 0,0"
   id="path66" />
      </g>
    </g>
  </g>
  <g
   fill="#000000"
   fill-opacity="1"
   id="g46"
   transform="matrix(0.352778,0,0,0.352778,-0.347266,0.00436558)">
    <g
   id="use44"
   transform="translate(13.456029,7.4720001)">
      <path
   d="M 2.625,-4.359375 C 1.390625,-4.0625 0.421875,-2.765625 0.421875,-1.5625 0.421875,-0.59375 1.0625,0.125 2,0.125 c 1.15625,0 1.984375,-1.578125 1.984375,-2.953125 0,-0.90625 -0.390625,-1.40625 -0.734375,-1.84375 C 2.890625,-5.125 2.296875,-5.875 2.296875,-6.3125 c 0,-0.21875 0.203125,-0.453125 0.546875,-0.453125 0.3125,0 0.5,0.125 0.71875,0.265625 0.203125,0.125 0.390625,0.25 0.546875,0.25 C 4.359375,-6.25 4.5,-6.484375 4.5,-6.65625 4.5,-6.875 4.34375,-6.890625 3.984375,-6.984375 3.46875,-7.09375 3.328125,-7.09375 3.171875,-7.09375 c -0.78125,0 -1.140625,0.4375 -1.140625,1.03125 0,0.546875 0.296875,1.09375 0.59375,1.703125 z m 0.125,0.21875 c 0.25,0.46875 0.546875,1 0.546875,1.71875 0,0.65625 -0.375,2.328125 -1.296875,2.328125 -0.546875,0 -0.96875,-0.421875 -0.96875,-1.1875 0,-0.625 0.375,-2.5 1.71875,-2.859375 z m 0,0"
   id="path70" />
    </g>
  </g>
  <g
   clip-path="url(#clipPath4900)"
   id="g52"
   transform="matrix(0.352778,0,0,0.352778,-0.347266,0.00436558)">
    <g
   fill="#000000"
   fill-opacity="1"
   id="g50">
      <g
   id="use48"
   transform="translate(18.257999,7.4720001)">
        <path
   d="m 2.875,-2.5 c 0,-0.765625 -0.109375,-1.96875 -0.65625,-3.109375 -0.59375,-1.21875 -1.453125,-1.875 -1.546875,-1.875 -0.0625,0 -0.109375,0.046875 -0.109375,0.109375 0,0.03125 0,0.046875 0.1875,0.234375 0.984375,0.984375 1.546875,2.5625 1.546875,4.640625 0,1.71875 -0.359375,3.46875 -1.59375,4.71875 C 0.5625,2.34375 0.5625,2.359375 0.5625,2.390625 0.5625,2.453125 0.609375,2.5 0.671875,2.5 0.765625,2.5 1.671875,1.8125 2.25,0.546875 2.765625,-0.546875 2.875,-1.65625 2.875,-2.5 Z m 0,0"
   id="path74" />
      </g>
    </g>
  </g>
</g><path
       style="opacity:1;fill:none;fill-opacity:1;stroke:#000000;stroke-width:0.2;stroke-dasharray:none;stroke-dashoffset:0;stroke-opacity:1"
       d="m 48.212947,169.04057 2.529005,0.71627 1.719792,-1.18829"
       id="path18561"
       sodipodi:nodetypes="ccc" /><text
       xml:space="preserve"
       style="font-size:5.15471px;line-height:0.5;font-family:'Noto Sans';-inkscape-font-specification:'Noto Sans';opacity:0.743725;fill:#000000;fill-opacity:1;fill-rule:evenodd;stroke:none;stroke-width:0.276146"
       x="47.458042"
       y="156.87798"
       id="text391"><tspan
         sodipodi:role="line"
         id="tspan389"
         style="fill:#000000;fill-opacity:1;stroke:none;stroke-width:0.276146"
         x="47.458042"
         y="156.87798">N</tspan></text><text
       xml:space="preserve"
       style="font-size:5.15471px;line-height:0.5;font-family:'Noto Sans';-inkscape-font-specification:'Noto Sans';opacity:0.743725;fill:#000000;fill-opacity:1;fill-rule:evenodd;stroke:none;stroke-width:0.276146"
       x="96.348442"
       y="170.00632"
       id="text391-3"><tspan
         sodipodi:role="line"
         id="tspan389-6"
         style="fill:#000000;fill-opacity:1;stroke:none;stroke-width:0.276146"
         x="96.348442"
         y="170.00632">E</tspan></text><text
       xml:space="preserve"
       style="font-size:5.15471px;line-height:0.5;font-family:'Noto Sans';-inkscape-font-specification:'Noto Sans';opacity:0.743725;fill:#000000;fill-opacity:1;fill-rule:evenodd;stroke:none;stroke-width:0.276146"
       x="-1.5359428"
       y="170.00632"
       id="text391-3-7"><tspan
         sodipodi:role="line"
         id="tspan389-6-5"
         style="fill:#000000;fill-opacity:1;stroke:none;stroke-width:0.276146"
         x="-1.5359428"
         y="170.00632">W</tspan></text><text
       xml:space="preserve"
       style="font-size:5.15471px;line-height:0.5;font-family:'Noto Sans';-inkscape-font-specification:'Noto Sans';opacity:0.743725;fill:#000000;fill-opacity:1;fill-rule:evenodd;stroke:none;stroke-width:0.276146"
       x="48.131554"
       y="183.32623"
       id="text391-3-3"><tspan
         sodipodi:role="line"
         id="tspan389-6-56"
         style="fill:#000000;fill-opacity:1;stroke:none;stroke-width:0.276146"
         x="48.131554"
         y="183.32623">S</tspan></text><text
       xml:space="preserve"
       style="font-size:2.46944px;line-height:0.5;font-family:'Noto Sans';-inkscape-font-specification:'Noto Sans';fill:#000000;fill-opacity:1;fill-rule:evenodd;stroke:none;stroke-width:0.132292"
       x="203.22917"
       y="177.61009"
       id="text1304"><tspan
         sodipodi:role="line"
         id="tspan1302"
         style="fill:#000000;fill-opacity:1;stroke-width:0.132292"
         x="203.22917"
         y="177.61009">E</tspan></text><text
       xml:space="preserve"
       style="font-size:2.46944px;line-height:0.5;font-family:'Noto Sans';-inkscape-font-specification:'Noto Sans';fill:#000000;fill-opacity:1;fill-rule:evenodd;stroke:none;stroke-width:0.132292"
       x="105.2644"
       y="177.80653"
       id="text1304-1"><tspan
         sodipodi:role="line"
         id="tspan1302-2"
         style="fill:#000000;fill-opacity:1;stroke-width:0.132292"
         x="105.2644"
         y="177.80653">W</tspan></text></g></svg>
